<svg width="30" height="30" viewBox="0 0 30 30" fill="none" xmlns="http://www.w3.org/2000/svg">
<path fill-rule="evenodd" clip-rule="evenodd" d="M12.6555 5.68773C13.0155 4.5232 14.0992 3.73463 15.318 3.75023C16.5437 3.73791 17.6295 4.53829 17.9805 5.71273L18.8055 8.21273C19.1759 9.36976 20.2531 10.1536 21.468 10.1502H24.068C25.3115 10.1031 26.4368 10.8823 26.8303 12.0628C27.2238 13.2433 26.791 14.5418 25.768 15.2502L23.6305 16.8127C22.6453 17.5204 22.2308 18.784 22.6055 19.9377L23.4305 22.4377C23.714 23.3032 23.5609 24.2523 23.0196 24.9847C22.4784 25.7171 21.616 26.1421 20.7055 26.1252C20.115 26.1208 19.5414 25.9281 19.068 25.5752L17.018 24.0127C16.0349 23.2956 14.7011 23.2956 13.718 24.0127L11.568 25.5752C11.0889 25.9607 10.4953 26.1762 9.88049 26.1877C8.96333 26.1954 8.10008 25.7553 7.56744 25.0086C7.03481 24.2619 6.89973 23.3024 7.20548 22.4377L8.03049 19.9377C8.42796 18.7875 8.03327 17.5123 7.05549 16.7877L4.91798 15.2252C3.9272 14.5144 3.51037 13.2441 3.8874 12.0844C4.26443 10.9248 5.34861 10.1425 6.56798 10.1502H9.16799C10.3896 10.1502 11.4689 9.35465 11.8305 8.18773L12.6555 5.68773ZM15.9805 6.33773C15.9036 6.0384 15.6266 5.83457 15.318 5.85023C14.994 5.83913 14.7114 6.06843 14.6555 6.38773L13.8305 8.88773C13.1748 10.9081 11.2921 12.276 9.16798 12.2752H6.51799C6.22343 12.2837 5.96573 12.4757 5.87339 12.7556C5.78105 13.0354 5.87383 13.3431 6.10549 13.5252L8.24299 15.0877C9.96709 16.3348 10.6893 18.552 10.0305 20.5752L9.20548 23.0752C9.12446 23.2805 9.15772 23.5133 9.29299 23.6877C9.43326 23.8897 9.65982 24.0145 9.90549 24.0252C10.0555 24.0207 10.2001 23.9682 10.318 23.8752L12.4305 22.3127C14.1523 21.0618 16.4837 21.0618 18.2055 22.3127L20.293 23.8002C20.4108 23.8932 20.5555 23.9457 20.7055 23.9502C20.94 23.935 21.1555 23.8158 21.293 23.6252C21.4283 23.4508 21.4615 23.218 21.3805 23.0127L20.5555 20.5127C19.8966 18.4895 20.6189 16.2723 22.343 15.0252L24.4805 13.4752C24.7121 13.2931 24.8049 12.9854 24.7126 12.7056C24.6202 12.4257 24.3625 12.2337 24.068 12.2252H21.468C19.3439 12.226 17.4611 10.8581 16.8055 8.83773L15.9805 6.33773Z" fill="#6C7072"/>
</svg>
