<svg width="24" height="24" viewBox="0 0 24 24" fill="none" xmlns="http://www.w3.org/2000/svg">
<path fill-rule="evenodd" clip-rule="evenodd" d="M22.29 7.79984V7.92984C22.2717 8.42996 22.0849 8.90921 21.76 9.28984L15.7 16.1598L12.91 19.3298C12.4938 19.799 11.8972 20.0682 11.27 20.0698C11.1304 20.0846 10.9896 20.0846 10.85 20.0698H10.79C10.6756 20.0533 10.5644 20.0196 10.46 19.9698H10.35C10.2561 19.9311 10.1658 19.8843 10.08 19.8298L9.98004 19.7598L9.79004 19.6198L8.41004 20.9998C8.14529 21.2641 7.784 21.4086 7.41004 21.3998C7.14121 21.3903 6.88083 21.3035 6.66004 21.1498C6.40981 21.404 6.08311 21.5692 5.73004 21.6198L3.22004 21.9098H3.07004C2.8105 21.9141 2.55949 21.8173 2.37004 21.6398L1.91004 21.1798C1.48912 20.6268 1.58197 19.8397 2.12004 19.3998L3.52004 17.9998C3.13319 17.4518 3.19649 16.705 3.67004 16.2298L5.05004 14.8498C5.00333 14.7889 4.95993 14.7255 4.92004 14.6598C4.88689 14.6223 4.85679 14.5822 4.83004 14.5398L4.70004 14.2798L4.63004 14.1398C4.55004 14.0498 4.55004 13.9598 4.55004 13.8598V13.7198C4.53979 13.6134 4.53979 13.5063 4.55004 13.3998V13.2898V12.9198C4.55619 12.9037 4.55619 12.8859 4.55004 12.8698C4.65219 12.4258 4.89403 12.0263 5.24004 11.7298L10.55 7.04984L15.27 2.89984C15.6833 2.54024 16.2122 2.34145 16.76 2.33984C17.3535 2.34082 17.9222 2.57835 18.34 2.99984L21.68 6.27984C21.9864 6.58311 22.1983 6.96866 22.29 7.38984C22.2854 7.40957 22.2854 7.43012 22.29 7.44984C22.2998 7.56631 22.2998 7.68338 22.29 7.79984ZM11.24 18.6298C11.4406 18.6317 11.6314 18.5436 11.76 18.3898L14.48 15.2598L20.58 8.33984C20.8442 8.05884 20.8442 7.62084 20.58 7.33984L17.28 4.03984C17.1395 3.89915 16.9489 3.82002 16.75 3.81984C16.5734 3.81892 16.4025 3.88299 16.27 3.99984L11.57 8.16984L6.15004 12.9498C6.09031 13.0124 6.03981 13.0831 6.00004 13.1598V13.2098C5.986 13.269 5.986 13.3307 6.00004 13.3898C5.9849 13.4691 5.9849 13.5506 6.00004 13.6298C6.05037 13.7033 6.11942 13.762 6.20004 13.7998C6.19308 13.8227 6.19308 13.847 6.20004 13.8698L10.75 18.4698C10.8261 18.5388 10.9142 18.593 11.01 18.6298C11.0697 18.6394 11.1304 18.6394 11.19 18.6298H11.24ZM3.25004 20.3898L4.11004 19.5398L4.79004 20.2098L3.25004 20.3898ZM4.82004 17.2098L7.41004 19.8398L8.71004 18.5098L6.11004 15.9098L4.82004 17.2098Z" fill="#FF1569"/>
<path d="M16.3501 7.21006L11.8501 11.7101C11.5576 12.0029 11.5576 12.4772 11.8501 12.7701C11.99 12.9117 12.181 12.991 12.3801 12.9901C12.5798 12.9946 12.7722 12.9147 12.9101 12.7701L17.4101 8.27006C17.553 8.13077 17.6336 7.93965 17.6336 7.74006C17.6336 7.54048 17.553 7.34935 17.4101 7.21006C17.1173 6.91761 16.6429 6.91761 16.3501 7.21006Z" fill="#FF1569"/>
</svg>
