<svg width="20" height="26" viewBox="0 0 20 26" fill="none" xmlns="http://www.w3.org/2000/svg">
<path d="M15.8 25.5H4.2C2.93646 25.4541 1.75946 24.8463 0.990429 23.8427C0.221403 22.8391 -0.0592962 21.5445 0.224996 20.3125L0.524996 18.8875C0.87004 16.9585 2.52827 15.5409 4.4875 15.5H15.5125C17.4717 15.5409 19.13 16.9585 19.475 18.8875L19.775 20.3125C20.0593 21.5445 19.7786 22.8391 19.0096 23.8427C18.2405 24.8463 17.0635 25.4541 15.8 25.5Z" fill="url(#paint0_linear_6263_2644)"/>
<path d="M15.8 25.5H4.2C2.93646 25.4541 1.75946 24.8463 0.990429 23.8427C0.221403 22.8391 -0.0592962 21.5445 0.224996 20.3125L0.524996 18.8875C0.87004 16.9585 2.52827 15.5409 4.4875 15.5H15.5125C17.4717 15.5409 19.13 16.9585 19.475 18.8875L19.775 20.3125C20.0593 21.5445 19.7786 22.8391 19.0096 23.8427C18.2405 24.8463 17.0635 25.4541 15.8 25.5Z" fill="url(#paint1_linear_6263_2644)" fill-opacity="0.2"/>
<path d="M10.625 13H9.37502C6.61359 13 4.37502 10.7614 4.37502 8.00002V4.70002C4.37169 3.58509 4.81311 2.51487 5.60149 1.72649C6.38987 0.938114 7.46009 0.496686 8.57502 0.500019H11.425C12.5399 0.496686 13.6102 0.938114 14.3985 1.72649C15.1869 2.51487 15.6284 3.58509 15.625 4.70002V8.00002C15.625 9.3261 15.0982 10.5979 14.1606 11.5356C13.2229 12.4732 11.9511 13 10.625 13Z" fill="url(#paint2_linear_6263_2644)"/>
<path d="M10.625 13H9.37502C6.61359 13 4.37502 10.7614 4.37502 8.00002V4.70002C4.37169 3.58509 4.81311 2.51487 5.60149 1.72649C6.38987 0.938114 7.46009 0.496686 8.57502 0.500019H11.425C12.5399 0.496686 13.6102 0.938114 14.3985 1.72649C15.1869 2.51487 15.6284 3.58509 15.625 4.70002V8.00002C15.625 9.3261 15.0982 10.5979 14.1606 11.5356C13.2229 12.4732 11.9511 13 10.625 13Z" fill="url(#paint3_linear_6263_2644)" fill-opacity="0.2"/>
<defs>
<linearGradient id="paint0_linear_6263_2644" x1="0.116455" y1="25.5" x2="20.9429" y2="18.7859" gradientUnits="userSpaceOnUse">
<stop stop-color="#FF1569"/>
<stop offset="1" stop-color="#C03AFF"/>
</linearGradient>
<linearGradient id="paint1_linear_6263_2644" x1="16.8473" y1="12.7623" x2="0.0310987" y2="28.2412" gradientUnits="userSpaceOnUse">
<stop offset="0.0729084" stop-color="white" stop-opacity="0"/>
<stop offset="0.182285" stop-color="white" stop-opacity="0.76"/>
<stop offset="0.249995" stop-color="white" stop-opacity="0"/>
<stop offset="0.250095" stop-color="white" stop-opacity="0"/>
<stop offset="0.447915" stop-color="white" stop-opacity="0"/>
<stop offset="0.567709" stop-color="white" stop-opacity="0.79"/>
<stop offset="0.645835" stop-color="white" stop-opacity="0"/>
</linearGradient>
<linearGradient id="paint2_linear_6263_2644" x1="4.375" y1="13" x2="17.1839" y2="11.1199" gradientUnits="userSpaceOnUse">
<stop stop-color="#FF1569"/>
<stop offset="1" stop-color="#C03AFF"/>
</linearGradient>
<linearGradient id="paint3_linear_6263_2644" x1="13.897" y1="-2.92211" x2="-1.14115" y2="3.38029" gradientUnits="userSpaceOnUse">
<stop offset="0.0729084" stop-color="white" stop-opacity="0"/>
<stop offset="0.182285" stop-color="white" stop-opacity="0.76"/>
<stop offset="0.249995" stop-color="white" stop-opacity="0"/>
<stop offset="0.250095" stop-color="white" stop-opacity="0"/>
<stop offset="0.447915" stop-color="white" stop-opacity="0"/>
<stop offset="0.567709" stop-color="white" stop-opacity="0.79"/>
<stop offset="0.645835" stop-color="white" stop-opacity="0"/>
</linearGradient>
</defs>
</svg>
